<svg width="150" height="150" viewBox="0 0 150 150" fill="none" xmlns="http://www.w3.org/2000/svg">
<path d="M16.6667 123.75C24.1667 116.389 32.8819 110.59 42.8125 106.354C52.7431 102.118 63.4722 100 75 100C86.5278 100 97.2569 102.118 107.187 106.354C117.118 110.59 125.833 116.389 133.333 123.75V16.6667H16.6667V123.75ZM95.625 74.7917C101.319 69.0972 104.167 62.2222 104.167 54.1667C104.167 46.1111 101.319 39.2361 95.625 33.5417C89.9306 27.8472 83.0556 25 75 25C66.9444 25 60.0694 27.8472 54.375 33.5417C48.6806 39.2361 45.8333 46.1111 45.8333 54.1667C45.8333 62.2222 48.6806 69.0972 54.375 74.7917C60.0694 80.4861 66.9444 83.3333 75 83.3333C83.0556 83.3333 89.9306 80.4861 95.625 74.7917ZM16.6667 150C12.0833 150 8.15972 148.368 4.89583 145.104C1.63194 141.84 0 137.917 0 133.333V16.6667C0 12.0833 1.63194 8.15972 4.89583 4.89583C8.15972 1.63194 12.0833 0 16.6667 0H133.333C137.917 0 141.84 1.63194 145.104 4.89583C148.368 8.15972 150 12.0833 150 16.6667V133.333C150 137.917 148.368 141.84 145.104 145.104C141.84 148.368 137.917 150 133.333 150H16.6667ZM31.0417 133.333H118.958C112.847 127.917 105.937 123.785 98.2292 120.937C90.5208 118.09 82.7778 116.667 75 116.667C67.2222 116.667 59.4097 118.09 51.5625 120.937C43.7153 123.785 36.875 127.917 31.0417 133.333ZM66.1458 63.0208C63.7153 60.5903 62.5 57.6389 62.5 54.1667C62.5 50.6944 63.7153 47.7431 66.1458 45.3125C68.5764 42.8819 71.5278 41.6667 75 41.6667C78.4722 41.6667 81.4236 42.8819 83.8542 45.3125C86.2847 47.7431 87.5 50.6944 87.5 54.1667C87.5 57.6389 86.2847 60.5903 83.8542 63.0208C81.4236 65.4514 78.4722 66.6667 75 66.6667C71.5278 66.6667 68.5764 65.4514 66.1458 63.0208Z" fill="#1F1F1F"/>
</svg>
